<?xml version="1.0" encoding="utf-8"?>
<!-- Generator: Adobe Illustrator 26.0.3, SVG Export Plug-In . SVG Version: 6.00 Build 0)  -->
<svg version="1.1" id="Layer_1" xmlns="http://www.w3.org/2000/svg" xmlns:xlink="http://www.w3.org/1999/xlink" x="0px" y="0px"
	 viewBox="0 0 250 85" style="enable-background:new 0 0 250 85;" xml:space="preserve">
<style type="text/css">
	.st0{opacity:0.1;}
	.st1{fill:#226EA9;}
	.st2{fill:url(#SVGID_1_);}
	.st3{fill:#E42328;}
</style>
<g id="edax">
	<g class="st0">
		<path d="M111.6,50.1l3.5,1.8c-1.2,2.3-2.5,4.1-4,5.5s-3.2,2.4-5.1,3.2s-4,1.1-6.4,1.1c-5.3,0-9.4-1.7-12.4-5.2
			c-3-3.5-4.5-7.4-4.5-11.7c0-4.1,1.3-7.8,3.8-11c3.2-4.1,7.5-6.1,12.8-6.1c5.5,0,9.9,2.1,13.2,6.3c2.3,3,3.5,6.7,3.6,11.1H87.1
			c0.1,3.8,1.3,6.8,3.6,9.3s5.2,3.6,8.6,3.6c1.6,0,3.3-0.3,4.8-0.9s2.9-1.3,4-2.3C109.2,53.8,110.4,52.2,111.6,50.1z M111.6,41.4
			c-0.6-2.2-1.4-4-2.4-5.3c-1.1-1.3-2.5-2.4-4.2-3.2c-1.7-0.8-3.6-1.2-5.5-1.2c-3.2,0-5.9,1-8.2,3.1c-1.7,1.5-2.9,3.7-3.8,6.7H111.6
			z"/>
		<path d="M156.3,16v44.9h-4.1v-5.6c-1.7,2.1-3.7,3.7-5.9,4.8c-2.2,1.1-4.6,1.6-7.1,1.6c-4.6,0-8.5-1.7-11.7-5
			c-3.2-3.3-4.9-7.4-4.9-12.1c0-4.7,1.6-8.7,4.9-12c3.3-3.3,7.2-5,11.8-5c2.7,0,5.1,0.6,7.2,1.7c2.2,1.1,4,2.8,5.7,5.1V16H156.3z
			 M139.7,31.7c-2.3,0-4.5,0.6-6.4,1.7c-2,1.1-3.5,2.7-4.7,4.8c-1.2,2.1-1.7,4.2-1.7,6.5c0,2.3,0.6,4.5,1.8,6.5
			c1.2,2.1,2.7,3.7,4.7,4.9s4.1,1.7,6.4,1.7c2.3,0,4.4-0.6,6.5-1.7c2-1.2,3.6-2.7,4.7-4.7c1.1-2,1.7-4.2,1.7-6.6
			c0-3.7-1.2-6.9-3.7-9.4C146.3,32.9,143.3,31.7,139.7,31.7z"/>
		<path d="M198,28.5v32.4h-4.1v-5.6c-1.7,2.1-3.7,3.7-5.9,4.8c-2.2,1.1-4.6,1.6-7.1,1.6c-4.6,0-8.5-1.7-11.7-5
			c-3.2-3.3-4.9-7.4-4.9-12.1c0-4.7,1.6-8.7,4.9-12c3.3-3.3,7.2-5,11.8-5c2.7,0,5.1,0.6,7.2,1.7c2.2,1.1,4,2.8,5.7,5.1v-6H198z
			 M181.4,31.7c-2.3,0-4.5,0.6-6.4,1.7c-2,1.1-3.5,2.7-4.7,4.8c-1.2,2.1-1.7,4.2-1.7,6.5c0,2.3,0.6,4.5,1.8,6.5
			c1.2,2.1,2.7,3.7,4.7,4.9s4.1,1.7,6.4,1.7c2.3,0,4.4-0.6,6.5-1.7c2-1.2,3.6-2.7,4.7-4.7c1.1-2,1.7-4.2,1.7-6.6
			c0-3.7-1.2-6.9-3.7-9.4C188,32.9,185,31.7,181.4,31.7z"/>
		<path d="M203.7,28.5h5l8.6,11.9l8.5-11.9h5l-11,15.3l12.4,17.1h-5.1l-9.9-13.6l-9.8,13.6h-5l12.3-17.1L203.7,28.5z"/>
	</g>
	<g>
		<g>
			<path class="st1" d="M110.6,49.1l3.5,1.8c-1.2,2.3-2.5,4.1-4,5.5s-3.2,2.4-5.1,3.2s-4,1.1-6.4,1.1c-5.3,0-9.4-1.7-12.4-5.2
				c-3-3.5-4.5-7.4-4.5-11.7c0-4.1,1.3-7.8,3.8-11c3.2-4.1,7.5-6.1,12.8-6.1c5.5,0,9.9,2.1,13.2,6.3c2.3,3,3.5,6.7,3.6,11.1H86.1
				c0.1,3.8,1.3,6.8,3.6,9.3s5.2,3.6,8.6,3.6c1.6,0,3.3-0.3,4.8-0.9s2.9-1.3,4-2.3C108.2,52.8,109.4,51.2,110.6,49.1z M110.6,40.4
				c-0.6-2.2-1.4-4-2.4-5.3c-1.1-1.3-2.5-2.4-4.2-3.2c-1.7-0.8-3.6-1.2-5.5-1.2c-3.2,0-5.9,1-8.2,3.1c-1.7,1.5-2.9,3.7-3.8,6.7
				H110.6z"/>
			<path class="st1" d="M155.3,15v44.9h-4.1v-5.6c-1.7,2.1-3.7,3.7-5.9,4.8c-2.2,1.1-4.6,1.6-7.1,1.6c-4.6,0-8.5-1.7-11.7-5
				c-3.2-3.3-4.9-7.4-4.9-12.1c0-4.7,1.6-8.7,4.9-12c3.3-3.3,7.2-5,11.8-5c2.7,0,5.1,0.6,7.2,1.7c2.2,1.1,4,2.8,5.7,5.1V15H155.3z
				 M138.7,30.7c-2.3,0-4.5,0.6-6.4,1.7c-2,1.1-3.5,2.7-4.7,4.8c-1.2,2.1-1.7,4.2-1.7,6.5c0,2.3,0.6,4.5,1.8,6.5
				c1.2,2.1,2.7,3.7,4.7,4.9s4.1,1.7,6.4,1.7c2.3,0,4.4-0.6,6.5-1.7c2-1.2,3.6-2.7,4.7-4.7c1.1-2,1.7-4.2,1.7-6.6
				c0-3.7-1.2-6.9-3.7-9.4C145.3,31.9,142.3,30.7,138.7,30.7z"/>
			<path class="st1" d="M197,27.5v32.4h-4.1v-5.6c-1.7,2.1-3.7,3.7-5.9,4.8c-2.2,1.1-4.6,1.6-7.1,1.6c-4.6,0-8.5-1.7-11.7-5
				c-3.2-3.3-4.9-7.4-4.9-12.1c0-4.7,1.6-8.7,4.9-12c3.3-3.3,7.2-5,11.8-5c2.7,0,5.1,0.6,7.2,1.7c2.2,1.1,4,2.8,5.7,5.1v-6H197z
				 M180.4,30.7c-2.3,0-4.5,0.6-6.4,1.7c-2,1.1-3.5,2.7-4.7,4.8c-1.2,2.1-1.7,4.2-1.7,6.5c0,2.3,0.6,4.5,1.8,6.5
				c1.2,2.1,2.7,3.7,4.7,4.9s4.1,1.7,6.4,1.7c2.3,0,4.4-0.6,6.5-1.7c2-1.2,3.6-2.7,4.7-4.7c1.1-2,1.7-4.2,1.7-6.6
				c0-3.7-1.2-6.9-3.7-9.4C187,31.9,184,30.7,180.4,30.7z"/>
			<path class="st1" d="M202.7,27.5h5l8.6,11.9l8.5-11.9h5l-11,15.3l12.4,17.1h-5.1l-9.9-13.6l-9.8,13.6h-5l12.3-17.1L202.7,27.5z"
				/>
		</g>
	</g>
</g>
<g>
	<g class="st0">
		<path d="M48.1,39.3c0.7,0,1.1-0.1,1.4-0.3c0.2-0.2,0.4-0.7,0.4-1.3c0-2.2-0.9-4.3-2.6-6.3s-4.4-2.9-7.9-2.9c-2.4,0-5,1.2-7.6,3.5
			s-3.9,5.6-3.9,9.8c0,3.1,1.4,5.9,4.1,8.4c2.7,2.5,5.8,3.7,9.2,3.7c2.6,0,5.4-0.8,8.4-2.4c1.1-0.6,1.9-0.9,2.2-0.9
			c0.5,0,0.9,0.1,1.3,0.4c0.3,0.3,0.5,0.7,0.5,1.1c0,1.1-1.6,2.4-4.9,3.9c-3.2,1.5-6.6,2.3-10,2.3c-5.1,0-9.4-1.7-12.8-5.2
			c-3.5-3.5-5.2-7.6-5.2-12.3c0-4.4,1.9-8.1,5.7-11.2c3.8-3.1,8.1-4.7,12.8-4.7c6.1,0,10.7,1.6,13.8,4.7c3.1,3.1,4.6,6.9,4.6,11.2
			c0,0.9-0.2,1.5-0.7,1.7c-0.5,0.2-1.3,0.3-2.6,0.3H34c-1.6,0-2.5-0.6-2.5-1.8c0-1.2,0.9-1.7,2.6-1.7H48.1z"/>
	</g>
	<g>
		<g>
			<path class="st1" d="M47.1,38.3c0.7,0,1.1-0.1,1.4-0.3c0.2-0.2,0.4-0.7,0.4-1.3c0-2.2-0.9-4.3-2.6-6.3s-4.4-2.9-7.9-2.9
				c-2.4,0-5,1.2-7.6,3.5s-3.9,5.6-3.9,9.8c0,3.1,1.4,5.9,4.1,8.4c2.7,2.5,5.8,3.7,9.2,3.7c2.6,0,5.4-0.8,8.4-2.4
				c1.1-0.6,1.9-0.9,2.2-0.9c0.5,0,0.9,0.1,1.3,0.4c0.3,0.3,0.5,0.7,0.5,1.1c0,1.1-1.6,2.4-4.9,3.9c-3.2,1.5-6.6,2.3-10,2.3
				c-5.1,0-9.4-1.7-12.8-5.2c-3.5-3.5-5.2-7.6-5.2-12.3c0-4.4,1.9-8.1,5.7-11.2c3.8-3.1,8.1-4.7,12.8-4.7c6.1,0,10.7,1.6,13.8,4.7
				c3.1,3.1,4.6,6.9,4.6,11.2c0,0.9-0.2,1.5-0.7,1.7c-0.5,0.2-1.3,0.3-2.6,0.3H33c-1.6,0-2.5-0.6-2.5-1.8c0-1.2,0.9-1.7,2.6-1.7
				H47.1z"/>
		</g>
	</g>
</g>
<g>
	<g>
		<linearGradient id="SVGID_1_" gradientUnits="userSpaceOnUse" x1="4.222" y1="40.7692" x2="96.3439" y2="40.7692">
			<stop  offset="0" style="stop-color:#CCE0F4"/>
			<stop  offset="0" style="stop-color:#C3DCF2"/>
			<stop  offset="0" style="stop-color:#A9D2EE"/>
			<stop  offset="0" style="stop-color:#80C2E7"/>
			<stop  offset="0" style="stop-color:#47ACDE"/>
			<stop  offset="0" style="stop-color:#1E9CD7"/>
			<stop  offset="0.9944" style="stop-color:#005B97"/>
		</linearGradient>
		<path class="st2" d="M13.7,17.5l0,45.4c0,1.2,1,2.2,2.2,2.2L63,65.1c1.2,0,2.2-1,2.2-2.2l-0.3-19.7c0-0.6,0.2-1.1,0.6-1.5l3.1-3.4
			c1.3-1.5,3.8-0.5,3.8,1.5v30.6c0,1.2-1,2.2-2.2,2.2h-62c-1.2,0-2.2-1-2.2-2.2V11.1c0-1.2,1-2.2,2.2-2.2h33.3
			c1.8,0,2.8,2.1,1.7,3.6l-1.6,1.9c-0.4,0.5-1,0.8-1.7,0.8l-24,0.1C14.7,15.3,13.7,16.3,13.7,17.5z"/>
	</g>
</g>
<g>
	<g class="st0">
		<path d="M55.7,9.5c0.5-0.2,1-0.3,1.5-0.5c0.5-0.1,0.9-0.3,1.3-0.4c0.4-0.1,0.7-0.2,1-0.2c0.3-0.1,0.5-0.1,0.7-0.1
			c0.2,0,0.5,0,0.7,0.1c0.2,0.1,0.4,0.2,0.6,0.4C61.6,9,61.8,9.3,62,9.6s0.4,0.8,0.6,1.3c0.2,0.7,0.5,1.3,0.7,1.9s0.4,1.2,0.7,1.7
			c0.5-0.9,1-1.8,1.4-2.6s1-1.4,1.5-2c0.5-0.5,1-1,1.5-1.3c0.5-0.3,1-0.5,1.5-0.5c0.3,0,0.6,0.1,0.9,0.2c0.3,0.1,0.5,0.2,0.7,0.4
			s0.3,0.4,0.4,0.6c0.1,0.2,0.1,0.4,0.1,0.7c0,0.3-0.1,0.6-0.2,0.9c-0.2,0.3-0.4,0.6-0.7,0.8h-0.1c-0.1-0.2-0.3-0.3-0.4-0.4
			c-0.1-0.1-0.3-0.2-0.4-0.2c-0.2-0.1-0.3-0.1-0.4-0.1s-0.3,0-0.4,0c-0.4,0-0.9,0.1-1.3,0.4c-0.4,0.2-0.8,0.6-1.2,1
			c-0.4,0.4-0.8,1-1.1,1.6s-0.7,1.3-1.1,2c0.4,1,0.7,1.8,1,2.5c0.3,0.7,0.6,1.4,0.8,1.9c0.3,0.5,0.5,1,0.8,1.3
			c0.2,0.4,0.5,0.6,0.8,0.9c0.3,0.2,0.5,0.4,0.8,0.5c0.3,0.1,0.6,0.1,0.9,0.1c0.2,0,0.4,0,0.6,0c0.2,0,0.4,0,0.6-0.1
			c0.2,0,0.4-0.1,0.6-0.1s0.4-0.1,0.7-0.2l0.2,0.6c-0.4,0.2-0.8,0.5-1.2,0.7s-0.8,0.4-1.3,0.5c-0.4,0.1-0.8,0.3-1.2,0.3
			C68.1,25,67.7,25,67.4,25c-0.5,0-0.9-0.1-1.3-0.4c-0.4-0.2-0.8-0.6-1.1-1.1c-0.4-0.5-0.7-1.2-1.1-2c-0.4-0.8-0.7-1.7-1.2-2.9
			c-0.5,0.9-1.1,1.8-1.6,2.6c-0.5,0.8-1.1,1.5-1.6,2c-0.5,0.6-1.1,1-1.6,1.3c-0.5,0.3-1.1,0.5-1.6,0.5c-0.3,0-0.6,0-0.9-0.1
			c-0.2-0.1-0.5-0.2-0.6-0.4c-0.2-0.1-0.3-0.3-0.4-0.5c-0.1-0.2-0.1-0.4-0.1-0.6c0-0.3,0.1-0.5,0.2-0.8c0.1-0.3,0.3-0.5,0.5-0.7
			c0.4,0.1,0.8,0.3,1.1,0.3c0.3,0.1,0.6,0.1,0.9,0.1c0.5,0,1-0.1,1.4-0.4c0.4-0.2,0.9-0.6,1.3-1c0.4-0.4,0.8-1,1.3-1.6
			s0.8-1.3,1.3-2.1c-0.1-0.4-0.3-0.7-0.4-1.1c-0.1-0.4-0.3-0.8-0.4-1.2s-0.3-0.9-0.5-1.3c-0.2-0.5-0.4-1-0.6-1.5
			c-0.2-0.5-0.3-0.8-0.5-1.1c-0.2-0.3-0.4-0.5-0.5-0.7c-0.2-0.2-0.4-0.3-0.6-0.3C58.3,10,58.1,10,57.8,10c-0.2,0-0.5,0-0.9,0.1
			c-0.3,0.1-0.7,0.1-1.1,0.2L55.7,9.5z"/>
	</g>
	<g>
		<g>
			<path class="st3" d="M54.7,8.5c0.5-0.2,1-0.3,1.5-0.5c0.5-0.1,0.9-0.3,1.3-0.4c0.4-0.1,0.7-0.2,1-0.2c0.3-0.1,0.5-0.1,0.7-0.1
				c0.2,0,0.5,0,0.7,0.1c0.2,0.1,0.4,0.2,0.6,0.4C60.6,8,60.8,8.3,61,8.6s0.4,0.8,0.6,1.3c0.2,0.7,0.5,1.3,0.7,1.9s0.4,1.2,0.7,1.7
				c0.5-0.9,1-1.8,1.4-2.6s1-1.4,1.5-2c0.5-0.5,1-1,1.5-1.3c0.5-0.3,1-0.5,1.5-0.5c0.3,0,0.6,0.1,0.9,0.2c0.3,0.1,0.5,0.2,0.7,0.4
				s0.3,0.4,0.4,0.6c0.1,0.2,0.1,0.4,0.1,0.7c0,0.3-0.1,0.6-0.2,0.9c-0.2,0.3-0.4,0.6-0.7,0.8h-0.1c-0.1-0.2-0.3-0.3-0.4-0.4
				c-0.1-0.1-0.3-0.2-0.4-0.2c-0.2-0.1-0.3-0.1-0.4-0.1s-0.3,0-0.4,0c-0.4,0-0.9,0.1-1.3,0.4c-0.4,0.2-0.8,0.6-1.2,1
				c-0.4,0.4-0.8,1-1.1,1.6s-0.7,1.3-1.1,2c0.4,1,0.7,1.8,1,2.5c0.3,0.7,0.6,1.4,0.8,1.9c0.3,0.5,0.5,1,0.8,1.3
				c0.2,0.4,0.5,0.6,0.8,0.9c0.3,0.2,0.5,0.4,0.8,0.5c0.3,0.1,0.6,0.1,0.9,0.1c0.2,0,0.4,0,0.6,0c0.2,0,0.4,0,0.6-0.1
				c0.2,0,0.4-0.1,0.6-0.1s0.4-0.1,0.7-0.2l0.2,0.6c-0.4,0.2-0.8,0.5-1.2,0.7s-0.8,0.4-1.3,0.5c-0.4,0.1-0.8,0.3-1.2,0.3
				C67.1,24,66.7,24,66.4,24c-0.5,0-0.9-0.1-1.3-0.4c-0.4-0.2-0.8-0.6-1.1-1.1c-0.4-0.5-0.7-1.2-1.1-2c-0.4-0.8-0.7-1.7-1.2-2.9
				c-0.5,0.9-1.1,1.8-1.6,2.6c-0.5,0.8-1.1,1.5-1.6,2c-0.5,0.6-1.1,1-1.6,1.3c-0.5,0.3-1.1,0.5-1.6,0.5c-0.3,0-0.6,0-0.9-0.1
				c-0.2-0.1-0.5-0.2-0.6-0.4c-0.2-0.1-0.3-0.3-0.4-0.5c-0.1-0.2-0.1-0.4-0.1-0.6c0-0.3,0.1-0.5,0.2-0.8c0.1-0.3,0.3-0.5,0.5-0.7
				c0.4,0.1,0.8,0.3,1.1,0.3c0.3,0.1,0.6,0.1,0.9,0.1c0.5,0,1-0.1,1.4-0.4c0.4-0.2,0.9-0.6,1.3-1c0.4-0.4,0.8-1,1.3-1.6
				s0.8-1.3,1.3-2.1c-0.1-0.4-0.3-0.7-0.4-1.1c-0.1-0.4-0.3-0.8-0.4-1.2s-0.3-0.9-0.5-1.3c-0.2-0.5-0.4-1-0.6-1.5
				c-0.2-0.5-0.3-0.8-0.5-1.1c-0.2-0.3-0.4-0.5-0.5-0.7c-0.2-0.2-0.4-0.3-0.6-0.3C57.3,9,57.1,9,56.8,9c-0.2,0-0.5,0-0.9,0.1
				c-0.3,0.1-0.7,0.1-1.1,0.2L54.7,8.5z"/>
		</g>
	</g>
</g>
<g>
</g>
<g>
</g>
<g>
</g>
<g>
</g>
<g>
</g>
<g>
</g>
<g>
</g>
<g>
</g>
<g>
</g>
<g>
</g>
<g>
</g>
<g>
</g>
<g>
</g>
<g>
</g>
<g>
</g>
</svg>
